Coordinates
version=1
nRows=23
nColumns=23
inDegrees=yes

Units are S.I. units (second, meters, Newtons, ...)
If the header above contains a line with 'inDegrees', this indicates whether rotational values are in degrees (yes) or radians (no).

endheader
time	pelvis_tilt	pelvis_list	pelvis_rotation	pelvis_tx	pelvis_ty	pelvis_tz	hip_flexion_r	hip_adduction_r	hip_rotation_r	knee_angle_r	knee_angle_r_beta	ankle_angle_r	subtalar_angle_r	mtp_angle_r	hip_flexion_l	hip_adduction_l	hip_rotation_l	knee_angle_l	knee_angle_l_beta	ankle_angle_l	subtalar_angle_l	mtp_angle_l
      0.00000000	     -9.50064082	      5.37951658	      0.76574694	      2.17936124	      0.88783199	      0.98899015	    -27.04691442	     -6.08285655	    -21.51572966	     14.95671979	      0.26104401	    -21.72484498	      2.16054265	      0.00000000	     45.74071248	      6.79931330	     -2.04817759	     56.26509558	      0.98201117	      3.01909536	    -16.58492134	      0.00000000
      0.00666667	    -10.09061261	      5.24528450	      1.58105058	      2.18000234	      0.88716142	      0.98759434	    -27.21159494	     -6.01071983	    -22.89047378	     16.81140317	      0.29341434	    -20.03870181	      0.78485454	      0.00000000	     46.21383324	      7.11906763	     -1.70312181	     51.41412099	      0.89734569	      4.06586599	    -16.06187091	      0.00000000
      0.01333333	    -10.61628289	      5.17232683	      2.35261747	      2.18073041	      0.88625533	      0.98624261	    -27.51467226	     -5.94017070	    -23.90632063	     18.53028598	      0.32341450	    -18.50854381	     -0.83290925	      0.00000000	     46.31942335	      7.53434518	     -1.34243068	     46.20745485	      0.80647223	      5.36293627	    -14.98716140	      0.00000000
      0.02000000	    -11.00745182	      5.15326554	      2.99169630	      2.18147558	      0.88521270	      0.98494414	    -27.85199907	     -5.96520420	    -24.51648380	     20.42875629	      0.35654906	    -17.03191664	     -2.48661384	      0.00000000	     45.99769196	      7.96671132	     -1.01233610	     40.75680858	      0.71134050	      6.62319139	    -13.61984080	      0.00000000
      0.02666667	    -11.25120951	      5.14933373	      3.55264314	      2.18221217	      0.88399751	      0.98366898	    -28.16739564	     -6.00804056	    -24.62561964	     22.62202539	      0.39482883	    -15.68065606	     -4.44197769	      0.00000000	     45.31018036	      8.42218976	     -0.59708636	     35.27041617	      0.61558489	      7.83504066	    -11.90446730	      0.00000000
      0.03333333	    -11.30848212	      5.12320355	      3.97787556	      2.18285939	      0.88270748	      0.98252247	    -28.40108327	     -6.01848579	    -24.01468110	     25.21847116	      0.44014535	    -14.59048668	     -6.80805788	      0.00000000	     44.29681601	      8.79310274	     -0.14547946	     29.95193792	      0.52275993	      8.96271737	     -9.85710793	      0.00000000
      0.04000000	    -11.15649053	      5.00303631	      4.32751586	      2.18329092	      0.88138489	      0.98151980	    -28.51788873	     -5.78271594	    -22.44103323	     28.20221498	      0.49222151	    -13.89592968	    -10.00691939	      0.00000000	     43.04939175	      9.03017371	      0.35169100	     25.06879841	      0.43753307	     10.10010729	     -7.35456147	      0.00000000
      0.04666667	    -10.82263009	      4.91592168	      4.62000653	      2.18350266	      0.87996418	      0.98074844	    -28.46597186	     -5.51000697	    -20.48826786	     31.77077908	      0.55450470	    -13.45908195	    -13.18550976	      0.00000000	     41.62724543	      9.25469678	      0.89607044	     20.70992505	      0.36145638	     11.04309849	     -4.82251741	      0.00000000
      0.05333333	    -10.36056241	      4.90718311	      4.91171899	      2.18340545	      0.87834926	      0.98021731	    -28.18240210	     -5.25804058	    -18.49312786	     36.00119542	      0.62833939	    -13.05671452	    -15.72028909	      0.00000000	     40.14141176	      9.53365401	      1.48596497	     17.00230612	      0.29674622	     11.68369873	     -2.48135623	      0.00000000
      0.06000000	     -9.77687999	      4.88360941	      5.06816773	      2.18294048	      0.87684585	      0.98026618	    -27.66581332	     -4.76775256	    -15.94107140	     40.60383935	      0.70867069	    -13.27919524	    -18.63860947	      0.00000000	     38.68716160	      9.65008201	      1.82385063	     14.13790345	      0.24675296	     12.20353660	     -0.26006911	      0.00000000
      0.06666667	     -9.23573438	      4.91048835	      5.33626162	      2.18215139	      0.87497496	      0.98056726	    -26.83189786	     -4.13362845	    -13.56733597	     45.64722674	      0.79669440	    -13.76670634	    -20.98777099	      0.00000000	     37.50043934	      9.84388714	      2.01591268	     12.25580683	      0.21390418	     12.48747814	      1.69624596	      0.00000000
      0.07333333	     -8.75854292	      5.17703803	      5.69707480	      2.18108219	      0.87268703	      0.98103981	    -25.74730776	     -3.75589485	    -11.88964060	     51.10742159	      0.89199278	    -14.16900123	    -22.04138044	      0.00000000	     36.49530787	     10.30764997	      2.12730650	     11.15929510	      0.19476644	     12.32008112	      2.82040386	      0.00000000
      0.08000000	     -8.33547423	      5.58524463	      6.18721148	      2.17975087	      0.87004235	      0.98160753	    -24.48835391	     -3.44412717	    -10.68047661	     56.72439890	      0.99002753	    -14.84200038	    -22.49655119	      0.00000000	     35.75415684	     10.95060816	      2.01205117	     11.02298292	      0.19238735	     11.80116437	      3.32415303	      0.00000000
      0.08666667	     -7.98530046	      6.15746474	      6.88275230	      2.17827382	      0.86695088	      0.98202006	    -23.11678849	     -3.33122419	    -10.14584806	     62.40131216	      1.08910835	    -15.53796670	    -22.17629831	      0.00000000	     35.29365048	     11.83927335	      1.73032783	     11.85964428	      0.20698984	     10.97614202	      3.18294954	      0.00000000
      0.09333333	     -7.63610737	      6.88021157	      7.79361927	      2.17663545	      0.86340430	      0.98219116	    -21.76683161	     -3.46151215	    -10.26222752	     68.03560520	      1.18744532	    -16.22932518	    -21.26715687	      0.00000000	     35.03310109	     12.94465419	      1.27719936	     13.64322496	      0.23811920	      9.85348352	      2.40032254	      0.00000000
      0.10000000	     -7.52502439	      7.56889279	      8.99314332	      2.17488064	      0.85915179	      0.98192023	    -20.17411354	     -3.70040142	    -10.92885523	     73.60073547	      1.28457517	    -16.56866847	    -19.53968174	      0.00000000	     35.22398994	     14.15180662	      0.84133342	     16.35324209	      0.28541792	      8.55309279	      1.37199825	      0.00000000
      0.10666667	     -7.30278951	      8.26389252	     10.31870025	      2.17294484	      0.85462963	      0.98148977	    -18.73322248	     -4.04946347	    -11.90629821	     78.97728441	      1.37841365	    -16.89034787	    -17.92847314	      0.00000000	     35.42367220	     15.34333039	      0.35221058	     19.79240988	      0.34544272	      7.20437744	     -0.04394259	      0.00000000
      0.11333333	     -7.10506614	      8.82923351	     11.73494472	      2.17084421	      0.84980332	      0.98091538	    -17.25186949	     -4.40907554	    -13.06964920	     84.15489142	      1.46877994	    -17.02725696	    -16.38836105	      0.00000000	     35.68780501	     16.43115616	      0.10956129	     23.72638334	      0.41410351	      6.09853849	     -1.65929138	      0.00000000
      0.12000000	     -6.90896232	      9.25514125	     13.20467818	      2.16857409	      0.84482672	      0.98020725	    -15.73227104	     -4.77096466	    -14.32932395	     89.11709472	      1.55538672	    -16.98573005	    -15.09598807	      0.00000000	     35.91678065	     17.39903283	      0.16175993	     27.94157624	      0.48767250	      5.37164115	     -3.34085163	      0.00000000
      0.12666667	     -6.68322686	      9.53072977	     14.67225796	      2.16613367	      0.83990896	      0.97939609	    -14.16678136	     -5.12383720	    -15.60020561	     93.84528887	      1.63790928	    -16.78903936	    -14.17810560	      0.00000000	     36.02325495	     18.24933223	      0.59924928	     32.27428192	      0.56329248	      5.32665008	     -4.96336341	      0.00000000
      0.13333333	     -6.41795857	      9.69731204	     16.04972799	      2.16348964	      0.83525529	      0.97852652	    -12.52901634	     -5.54499384	    -16.78138632	     98.34814818	      1.71649900	    -16.47156538	    -13.65625630	      0.00000000	     35.92572978	     18.98565012	      1.33204397	     36.51256744	      0.63726452	      5.98623560	     -6.39858910	      0.00000000
      0.14000000	     -6.07507265	      9.75494202	     17.30657907	      2.16069676	      0.83109709	      0.97762689	    -10.82110724	     -6.00986419	    -17.81469522	    102.58813821	      1.79050079	    -16.08935998	    -13.49891798	      0.00000000	     35.54895895	     19.56508365	      2.28612171	     40.55065638	      0.70774247	      7.36289958	     -7.47113737	      0.00000000
      0.14666667	     -5.70478984	      9.74284932	     18.33927033	      2.15780332	      0.82751369	      0.97679813	     -8.93761048	     -6.58266766	    -18.56294004	    106.58742462	      1.86030150	    -15.66367249	    -13.67264433	      0.00000000	     34.90007717	     19.93247958	      3.28131093	     44.23186727	      0.77199172	      9.35433581	     -8.10312007	      0.00000000
